<svg width="22" height="24" viewBox="0 0 22 24" fill="none" xmlns="http://www.w3.org/2000/svg">
<path d="M5.27742 10.1249C5.45742 10.1474 5.62992 10.1549 5.80992 10.1549C6.91992 10.1549 7.98492 9.7799 8.85492 9.0749C9.86742 8.2574 10.5049 7.0949 10.6474 5.7974C10.7899 4.4999 10.4149 3.2324 9.59742 2.2199C7.90992 0.127403 4.83492 -0.202598 2.74242 1.4849C1.72992 2.3024 1.09242 3.4649 0.949916 4.7624C0.807416 6.0599 1.18242 7.3274 1.99992 8.3399C2.82492 9.3524 3.98742 9.9899 5.27742 10.1249ZM3.19242 5.0024C3.26742 4.3049 3.61242 3.6824 4.15242 3.2399C4.62492 2.8574 5.19492 2.6624 5.79492 2.6624C5.89242 2.6624 5.98242 2.6699 6.07992 2.6774C6.77742 2.7524 7.39992 3.0974 7.84242 3.6449C8.28492 4.1924 8.47992 4.8749 8.40492 5.5724C8.32992 6.2699 7.98492 6.8924 7.44492 7.3349C6.90492 7.7774 6.21492 7.9724 5.51742 7.8974C4.81992 7.8224 4.19742 7.4774 3.75492 6.9299C3.31992 6.3824 3.11742 5.6999 3.19242 5.0024Z" fill="#130F49"/>
<path d="M20.4199 15.6598C18.7324 13.5673 15.6574 13.2373 13.5649 14.9248C12.5524 15.7423 11.9149 16.9048 11.7724 18.2023C11.6299 19.4998 12.0049 20.7673 12.8224 21.7798C13.6399 22.7923 14.8024 23.4298 16.0999 23.5723C16.2799 23.5948 16.4524 23.6023 16.6324 23.6023C17.7424 23.6023 18.8074 23.2273 19.6774 22.5223C21.7699 20.8273 22.1074 17.7523 20.4199 15.6598ZM18.2674 20.7598C17.7199 21.2023 17.0374 21.3973 16.3399 21.3223C15.6424 21.2473 15.0199 20.9023 14.5774 20.3548C14.1349 19.8073 13.9399 19.1248 14.0149 18.4273C14.0899 17.7298 14.4349 17.1073 14.9749 16.6648C15.4624 16.2748 16.0399 16.0873 16.6174 16.0873C17.3824 16.0873 18.1474 16.4248 18.6649 17.0623C19.5724 18.1948 19.3924 19.8523 18.2674 20.7598Z" fill="#130F49"/>
<path d="M21.2 3.47238C20.81 2.98488 20.105 2.90988 19.6175 3.29988L0.927454 18.3599C0.439954 18.7499 0.364954 19.4549 0.754954 19.9424C0.979954 20.2199 1.30245 20.3624 1.63245 20.3624C1.87995 20.3624 2.12745 20.2799 2.33745 20.1149L21.0275 5.06238C21.515 4.66488 21.59 3.95988 21.2 3.47238Z" fill="#130F49"/>
</svg>
