<svg width="34" height="28" viewBox="0 0 34 28" fill="none" xmlns="http://www.w3.org/2000/svg">
<path d="M17 9.125C14.315 9.125 12.125 11.315 12.125 14C12.125 16.685 14.315 18.875 17 18.875C19.685 18.875 21.875 16.685 21.875 14C21.875 11.315 19.685 9.125 17 9.125ZM17 16.625C15.5525 16.625 14.375 15.4475 14.375 14C14.375 12.5525 15.5525 11.375 17 11.375C18.4475 11.375 19.625 12.5525 19.625 14C19.625 15.4475 18.4475 16.625 17 16.625Z" fill="#130F49"/>
<path d="M2 8.37499C2.6225 8.37499 3.125 7.87249 3.125 7.24999V2.375H7.99999C8.62249 2.375 9.12499 1.8725 9.12499 1.25C9.12499 0.6275 8.62249 0.125 7.99999 0.125H2C1.3775 0.125 0.875 0.6275 0.875 1.25V7.24999C0.875 7.87249 1.3775 8.37499 2 8.37499Z" fill="#130F49"/>
<path d="M2 27.875H7.99999C8.62249 27.875 9.12499 27.3725 9.12499 26.75C9.12499 26.1275 8.62249 25.625 7.99999 25.625H3.125V20.75C3.125 20.1275 2.6225 19.625 2 19.625C1.3775 19.625 0.875 20.1275 0.875 20.75V26.75C0.875 27.3725 1.3775 27.875 2 27.875Z" fill="#130F49"/>
<path d="M32 19.625C31.3775 19.625 30.875 20.1275 30.875 20.75V25.625H26C25.3775 25.625 24.875 26.1275 24.875 26.75C24.875 27.3725 25.3775 27.875 26 27.875H32C32.6225 27.875 33.125 27.3725 33.125 26.75V20.75C33.125 20.1275 32.6225 19.625 32 19.625Z" fill="#130F49"/>
<path d="M32 0.125H26C25.3775 0.125 24.875 0.6275 24.875 1.25C24.875 1.8725 25.3775 2.375 26 2.375H30.875V7.24999C30.875 7.87249 31.3775 8.37499 32 8.37499C32.6225 8.37499 33.125 7.87249 33.125 7.24999V1.25C33.125 0.6275 32.6225 0.125 32 0.125Z" fill="#130F49"/>
</svg>
