<svg width="782" height="889" viewBox="0 0 782 889" fill="none" xmlns="http://www.w3.org/2000/svg">
<path opacity="0.8" fill-rule="evenodd" clip-rule="evenodd" d="M600.516 604.504C546.826 692.71 566.739 835.735 472.657 878.33C379.278 920.608 283.905 819.981 185.102 792.582C89.116 765.964 -23.8375 787.548 -97.2995 720.274C-174.164 649.886 -205.825 539.255 -205.308 435.063C-204.81 334.908 -155.288 243.33 -94.5354 163.719C-37.9901 89.6196 33.2093 17.3823 125.164 2.00143C211.189 -12.3878 280.145 71.3159 366.012 86.6841C463.564 104.144 574.311 40.6387 655.846 96.9808C740.955 155.793 791.486 270.141 780.278 372.948C769.421 472.531 652.596 518.943 600.516 604.504Z" fill="#FEDFB1"/>
</svg>
