 <!DOCTYPE svg PUBLIC "-//W3C//DTD SVG 1.1//EN" "http://www.w3.org/Graphics/SVG/1.1/DTD/svg11.dtd">
<svg xmlns="http://www.w3.org/2000/svg" xmlns:xlink="http://www.w3.org/1999/xlink" width="865.76" height="682.89" viewBox="0 0 865.76 682.89">
<defs>
<clipPath id="a">
<path d="M462.8,503s32.75-17.87,39.28-20.3l6.64-2.42s2.9-7,5.81-7.86c0,0-5-22-5-28.6V420l-1.45-6.28s9.75-9.32,18.65-5.6l4.36,8.5a17.06,17.06,0,0,1,10.76,10.56C545.19,435.88,556,468,558,482.41s-95.32,83.19-95.32,83.19Z" fill="none"/>
</clipPath>
<clipPath id="b">
<path d="M358.59,503s-32.75-17.87-39.36-20.3l-6.64-2.42s-2.9-7-5.81-7.86c0,0,5-22,5-28.6V420l1.45-6.28s-9.75-9.32-18.66-5.6l-4.35,8.5a17.06,17.06,0,0,0-10.76,10.56c-3.32,8.71-14.14,40.86-16.17,55.24s95.32,83.19,95.32,83.19Z" fill="none"/>
</clipPath>
<clipPath id="c">
<path d="M343.71,491.36l34.22,15.48s7.47,3.6,28.29,4.51S445.5,503,445.5,503l29.86-9.62s9.24,45.74-4.37,95.48l5.17,71.27s-73.17,13.68-140.22,0l7-68.79S334.8,526.53,343.71,491.36Z" fill="none"/>
</clipPath>
<style xmlns="http://www.w3.org/1999/xhtml">*, ::after, ::before { box-sizing: border-box; }
img, svg { vertical-align: middle; }
</style>
<style xmlns="http://www.w3.org/1999/xhtml">*, body, html { -webkit-font-smoothing: antialiased; }
img, svg { max-width: 100%; }
</style>
</defs>
<path d="M476.17,660.14S402.76,675,336,660.14c-40.86-9.09-126.9-30.67-147.2-79.57S266.22,490,218.17,440.34C197.46,419,98,390.72,103.59,251.9S254.91,28.47,457.43,32.29,776.82,220.16,698.49,310.85s-112,90.95-76.53,164.8S608.17,639,476.17,660.14Z" fill="#0071f2" data-primary="true"/>
<path d="M476.17,660.14S402.76,675,336,660.14c-40.86-9.09-126.9-30.67-147.2-79.57S266.22,490,218.17,440.34C197.46,419,98,390.72,103.59,251.9S254.91,28.47,457.43,32.29,776.82,220.16,698.49,310.85s-112,90.95-76.53,164.8S608.17,639,476.17,660.14Z" fill="#fff" opacity="0.7" style="isolation:isolate"/>
<path d="M517.15,410.17l-4.87,1.75a3.23,3.23,0,0,1-4.14-1.94h0L467.78,297.11s.88-2,5-3.44a9.43,9.43,0,0,1,6-.47L519.12,406a3.14,3.14,0,0,1-1.79,4.07h0Z" fill="#2f2e41" data-secondary="true"/>
<path d="M478.75,293.14l26.46,74a9.5,9.5,0,0,0-6,.48c-4.07,1.47-5,3.45-5,3.45l-26.46-74s.89-2,5-3.45A9.49,9.49,0,0,1,478.75,293.14Z" fill="#0071f2" data-primary="true"/>
<path d="M495.81,351.1l1.65,4.44" fill="none" stroke="#fff" stroke-linecap="round" stroke-linejoin="round"/>
<path d="M475.34,296.17l18.27,49" fill="none" stroke="#fff" stroke-linecap="round" stroke-linejoin="round"/>
<path d="M510.48,416.46s-3.9-12.57-7.17-14.55c-3.79-2.23-6.49-6.43-5.7-9.24,1.43-5-1.76-7.37,1.22-8.76,0,0,5.63,6.46,6.38,5,5.27-10.37,2-16.17,2-16.17,6.79-3.31,6.7,1.13,10.42,3s2.59,1.34,5,5c1.57,2.38,1.25,4.36,3.14,5.9s1,7.62.72,11-1,8.23-1,8.23l2.5,6.21Z" fill="#f9b499"/>
<path d="M462.8,503s32.75-17.87,39.28-20.3l6.64-2.42s2.9-7,5.81-7.86c0,0-5-22-5-28.6V420l-1.45-6.28s9.75-9.32,18.65-5.6l4.36,8.5a17.06,17.06,0,0,1,10.76,10.56C545.19,435.88,556,468,558,482.41s-95.32,83.19-95.32,83.19Z" fill="#2f2e41" data-secondary="true"/>
<g clip-path="url(#a)">
<path d="M522.26,519.71,521,521.63c-26.72,21.81-58.15,44-58.15,44V503l1.58-.83a40.3,40.3,0,0,1,6.28.83c13.78,3.64,15.72,34.88,15.72,34.88C499.07,533.81,521.54,520.14,522.26,519.71Z" fill-opacity="0.7" opacity="0.2" style="isolation:isolate"/>
</g>
<path d="M515.54,421.44s9-5.8,15.71-4.72" fill="none" stroke="#263238" stroke-linecap="round" stroke-linejoin="round"/>
<path d="M304.23,410.17l4.88,1.75a3.23,3.23,0,0,0,4.14-1.94h0l40.36-112.86s-.88-2-4.95-3.44a9.43,9.43,0,0,0-6-.47L302.27,406a3.14,3.14,0,0,0,1.79,4.07h0Z" fill="#2f2e41" data-secondary="true"/>
<path d="M342.64,293.14l-26.46,74a9.5,9.5,0,0,1,6,.48c4.07,1.47,5,3.45,5,3.45l26.46-74s-.89-2-5-3.45A9.5,9.5,0,0,0,342.64,293.14Z" fill="#0071f2" data-primary="true"/>
<path d="M325.57,351.1l-1.65,4.44" fill="none" stroke="#fff" stroke-linecap="round" stroke-linejoin="round"/>
<path d="M346.05,296.17q-9.14,24.51-18.28,49" fill="none" stroke="#fff" stroke-linecap="round" stroke-linejoin="round"/>
<path d="M310.91,416.46s3.9-12.57,7.17-14.55c3.79-2.23,6.49-6.43,5.7-9.24-1.43-5,1.76-7.37-1.22-8.76,0,0-5.63,6.46-6.38,5-5.27-10.37-2-16.17-2-16.17-6.79-3.31-6.7,1.13-10.42,3s-2.59,1.34-5,5c-1.57,2.38-1.25,4.36-3.14,5.9s-1,7.62-.72,11,1,8.23,1,8.23l-2.49,6.21Z" fill="#f9b499"/>
<path d="M358.59,503s-32.75-17.87-39.36-20.3l-6.64-2.42s-2.9-7-5.81-7.86c0,0,5-22,5-28.6V420l1.45-6.28s-9.75-9.32-18.66-5.6l-4.35,8.5a17.06,17.06,0,0,0-10.76,10.56c-3.32,8.71-14.14,40.86-16.17,55.24s95.32,83.19,95.32,83.19Z" fill="#2f2e41" data-secondary="true"/>
<g clip-path="url(#b)">
<path d="M357.91,502.65l.68.36v62.65s-42.18-29.83-70.46-54.31c46.21,29,44.55,20.12,44.55,20.12,4.14-20.93,13-28.46,13-28.46S350.37,502.85,357.91,502.65Z" fill-opacity="0.7" opacity="0.2" style="isolation:isolate"/>
</g>
<path d="M391.52,484.84a26.21,26.21,0,0,1-5,22.8s21.31,10.77,42,0c0,0-6.29-13.68-2.17-20.72C426.41,486.92,413.49,479,391.52,484.84Z" fill="#f9b499"/>
<path d="M441.92,452.05S435.87,423.76,411,421.6s-33.56,18.85-36.83,36.14l35.59,3.53Z" fill="#0071f2" data-primary="true"/>
<path d="M439.62,450c3.73-1.46,5.25,4.3,5.25,4.3s4.21,2.77,4.21,12.72c0,9-6.38,12.13-6.38,12.13s-2.79,5.92-6.28,2.06S435,451.75,439.62,450Z" fill="#0071f2" data-primary="true"/>
<path d="M444.87,454.26a34.89,34.89,0,0,1,1,10.13,31.09,31.09,0,0,1-.65,5.09,18.08,18.08,0,0,1-1.79,4.79,37.22,37.22,0,0,0,1-4.93c.21-1.66.35-3.32.42-5s.08-3.34.07-5S444.93,456,444.87,454.26Z" fill="#fff" opacity="0.6" style="isolation:isolate"/>
<path d="M376.63,450c-3.73-1.46-5.25,4.3-5.25,4.3s-4.2,2.77-4.2,12.72c0,9,6.37,12.13,6.37,12.13s2.81,5.92,6.28,2.06S381.26,451.75,376.63,450Z" fill="#0071f2" data-primary="true"/>
<path d="M371.41,454.26c-.06,1.7-.08,3.39-.11,5.07s0,3.35.07,5,.21,3.33.42,5a38.89,38.89,0,0,0,1,4.93,18.08,18.08,0,0,1-1.79-4.79,31.09,31.09,0,0,1-.65-5.09A35.24,35.24,0,0,1,371.41,454.26Z" fill="#fff" opacity="0.6" style="isolation:isolate"/>
<path d="M420.12,428.43s-9-6.28-16-5.28-.95,2.59-.95,2.59-11.81.66-12.9,2.69,0,2,0,2-7.16,3.15-8.81,6.29,1.57,2.45,1.57,2.45-6.52,8.09-7,13.06,1.57,2.79,1.57,2.79a66.09,66.09,0,0,0,1.57,22.38c2.95,10.58,5.12,11,5,13.83s3.59,1.41,3.59,1.41,1.66,3.15,4.1,3.15,6.17-2.49,6.17-2.49,5.17,5.75,9.05,5,5-5.28,5-5.28,3.41,6.28,5.89,5.36,2.18-5.2,2.18-5.2,2.8,3.42,5.12,3.14a2.49,2.49,0,0,0,2.19-2.64s2.64,1.24,3.41.61-.46-2.17,1.24-4.81,6.85-11.34,8.09-17.72c0,0,.6,2.48,1.7-2s-1.24-15.51-1.24-15.51.56,2.29,1.57,1.66-2.29-9.79-9.13-13.67c0,0,2.48.63,2.64-.92S431.51,427.35,420.12,428.43Z" fill="#2f2e41" data-secondary="true"/>
<path d="M376,509.29s10.23-5.39,33.2-6.28,34.3,6.28,34.3,6.28a69.72,69.72,0,0,1-32.05,10.36C393.6,520.48,376,509.29,376,509.29Z" fill="#2f2e41" data-secondary="true"/>
<path d="M343.71,491.36l34.22,15.48s7.47,3.6,28.29,4.51S445.5,503,445.5,503l29.86-9.62s9.24,45.74-4.37,95.48l5.17,71.27s-73.17,13.68-140.22,0l7-68.79S334.8,526.53,343.71,491.36Z" fill="#0071f2" data-primary="true"/>
<g clip-path="url(#c)">
<path d="M477.26,554.69c-16.35,4.09-41.33,9-66.16,9-26.4,0-54.08-4.81-71.07-8.39-.47-10.28-.68-21.67-.24-32.73,15.42,9,40.72,20,70.79,18.86a147.06,147.06,0,0,0,67.68-19.88A242.08,242.08,0,0,1,477.26,554.69Z" fill="#fff" opacity="0.6" style="isolation:isolate"/>
<path d="M475.32,648.69c-24.49,4.95-72.69,10.9-138.28,1.21l2.49-24.37a313.41,313.41,0,0,0,133.86-4.26Z" fill="#fff" opacity="0.6" style="isolation:isolate"/>
</g>
<path d="M377.93,506.84c2.53,1.13,5,2.29,7.6,3.32s5.1,2.1,7.67,3.08,5.15,1.9,7.77,2.69c1.3.44,2.63.76,3.94,1.15s2.64.65,4,.9a39,39,0,0,0,4,.61,19.43,19.43,0,0,0,2,.15h2a50,50,0,0,0,8.05-1,45.67,45.67,0,0,0,7.79-2.44,35.43,35.43,0,0,0,7.23-3.92,34.81,34.81,0,0,1-14.65,7.87,44,44,0,0,1-8.32,1.42,27.73,27.73,0,0,1-4.28-.1,39,39,0,0,1-4.2-.6,78.56,78.56,0,0,1-15.89-5.26A107.59,107.59,0,0,1,377.93,506.84Z" opacity="0.2"/>
<path d="M355.37,596.41a108.82,108.82,0,0,0,10.74,5.26c3.65,1.58,7.38,3,11.15,4.19a98.35,98.35,0,0,0,23.22,4.67,70.56,70.56,0,0,0,11.81,0c2-.11,3.92-.44,5.87-.71s3.88-.72,5.78-1.26,3.77-1.14,5.66-1.74l2.76-1.09,1.38-.55,1.34-.65a72.43,72.43,0,0,0,10.37-5.9A59.21,59.21,0,0,1,424.36,610c-1.92.64-3.91,1-5.89,1.49s-4,.7-6,.86a69.22,69.22,0,0,1-12.13.15,87.83,87.83,0,0,1-12-1.77,96.9,96.9,0,0,1-11.59-3.42A93.22,93.22,0,0,1,355.37,596.41Z" opacity="0.2"/>
<g opacity="0.4">
<path d="M422.18,443a22.7,22.7,0,0,0-18-10.35" fill="none" stroke="#fff" stroke-linecap="round" stroke-linejoin="round"/>
<path d="M418.66,445.68s-11.6.21-15.71,6.21" fill="none" stroke="#fff" stroke-linecap="round" stroke-linejoin="round"/>
<path d="M420.74,448.78s-4.72,8.09-3.52,14" fill="none" stroke="#fff" stroke-linecap="round" stroke-linejoin="round"/>
<path d="M425.72,448.78a20.78,20.78,0,0,1,7.85,7" fill="none" stroke="#fff" stroke-linecap="round" stroke-linejoin="round"/>
<path d="M426.53,443s0-6.14,5-5.17" fill="none" stroke="#fff" stroke-linecap="round" stroke-linejoin="round"/>
</g>
<path d="M94.73,401.29H263s-10-34.9-47.8-23.93c0,0-29.87-32.91-70.71,1C144.52,378.36,111.66,363.4,94.73,401.29Z" fill="#e6e7e8"/>
<path d="M193,406.85h50.32s-3-9.7-14.29-6.65c0,0-8.93-9.14-21.14.28C207.9,400.48,198.07,396.32,193,406.85Z" fill="#fff"/>
<polygon points="405.85 299.55 405.85 270.9 402.83 270.9 402.83 299.55 400.57 299.55 400.57 301.81 408.86 301.81 408.86 299.55 405.85 299.55" fill="#2f2e41" data-secondary="true"/>
<polygon points="405.85 299.55 405.85 270.9 402.83 270.9 402.83 299.55 400.57 299.55 400.57 301.81 408.86 301.81 408.86 299.55 405.85 299.55" opacity="0.2"/>
<path d="M599.61,172.13l-120.67,6.35v-6.72l120.56-2.69a1.54,1.54,0,0,1,1.56,1.53h0A1.53,1.53,0,0,1,599.61,172.13Z" fill="#0071f2" data-primary="true"/>
<path d="M210.44,172.13l120.68,6.35v-6.72l-120.56-2.69A1.55,1.55,0,0,0,209,170.6h0A1.53,1.53,0,0,0,210.44,172.13Z" fill="#0071f2" data-primary="true"/>
<path d="M412.63,117.14H399.81L404.25,18a2,2,0,0,1,2-1.89h0a2,2,0,0,1,2,1.89Z" fill="#0071f2" data-primary="true"/>
<rect x="590.13" y="217.95" width="13.36" height="13.36" fill="#0071f2" data-primary="true"/>
<rect x="590.13" y="217.95" width="13.36" height="13.36" fill="#fff" opacity="0.5"/>
<ellipse cx="595.02" cy="252.79" rx="24.41" ry="24.78" fill="#0071f2" data-primary="true"/>
<ellipse cx="595.02" cy="252.79" rx="24.41" ry="24.78" fill="#fff" opacity="0.5"/>
<circle cx="595.02" cy="252.79" r="18.59" fill="#2f2e41" data-secondary="true"/>
<path d="M595,272.13a19.35,19.35,0,1,1,19.34-19.34A19.37,19.37,0,0,1,595,272.13ZM595,235a17.84,17.84,0,1,0,17.83,17.84A17.86,17.86,0,0,0,595,235Z" fill="#0071f2" data-primary="true"/>
<path d="M589.75,247.68a2.08,2.08,0,0,0-.21.21l-.29-.23-1.49-1.23-2.27-2a16.86,16.86,0,0,1-2.22-2,10.23,10.23,0,0,1-1.63-2.6l.11-.1a10.28,10.28,0,0,1,2.58,1.63,16.32,16.32,0,0,1,2,2.22l1.95,2.27c.41.5.82,1,1.21,1.48A2.48,2.48,0,0,1,589.75,247.68Z" fill="#0071f2" data-primary="true"/>
<path d="M592.36,245.94a1.79,1.79,0,0,0-.32.13,3.45,3.45,0,0,1-.2-.32c-.3-.48-.59-1-.9-1.46l-1.53-2.66a18.25,18.25,0,0,1-1.47-2.67,10.8,10.8,0,0,1-.72-3.05l.14-.06a10.41,10.41,0,0,1,1.94,2.45,17.42,17.42,0,0,1,1.19,2.81l1.13,2.84c.21.55.41,1.09.61,1.63C592.28,245.7,592.32,245.82,592.36,245.94Z" fill="#0071f2" data-primary="true"/>
<path d="M595.62,240.21l-.23,3c-.06.61-.11,1.22-.18,1.84,0,.13,0,.25,0,.38h-.31c0-.12,0-.25,0-.38-.06-.61-.11-1.23-.18-1.84l-.23-3a19,19,0,0,1-.15-3,10.49,10.49,0,0,1,.68-3h.15a10.49,10.49,0,0,1,.68,3A16.87,16.87,0,0,1,595.62,240.21Z" fill="#0071f2" data-primary="true"/>
<path d="M602,235.9a9.74,9.74,0,0,1-.37,3,16.79,16.79,0,0,1-1.16,2.69l-1.22,2.67c-.28.54-.53,1.08-.8,1.63-.06.11-.11.22-.17.34a1.92,1.92,0,0,0-.29-.14c0-.12.07-.24.1-.36l.45-1.74.8-2.81a16.65,16.65,0,0,1,.87-2.81,10.66,10.66,0,0,1,1.65-2.51Z" fill="#0071f2" data-primary="true"/>
<path d="M608.4,239.88a10,10,0,0,1-1.58,2.59,15.92,15.92,0,0,1-2.18,2l-2.23,2-1.56,1.3a3.15,3.15,0,0,1-.3.24,1.07,1.07,0,0,0-.18-.19,2.42,2.42,0,0,1,.25-.31l1.25-1.57,1.91-2.27a16.56,16.56,0,0,1,2-2.22,10,10,0,0,1,2.56-1.63Z" fill="#0071f2" data-primary="true"/>
<path d="M612.43,246.29A9.53,9.53,0,0,1,610,248a16.27,16.27,0,0,1-2.75,1l-2.77.9-2.1.62-.36.1c0-.07,0-.14-.07-.22l.34-.18,1.9-1,2.6-1.31a17.06,17.06,0,0,1,2.63-1.25,9.85,9.85,0,0,1,3-.47Z" fill="#0071f2" data-primary="true"/>
<path d="M613.6,253.23v.15a10.09,10.09,0,0,1-2.91.68,17.75,17.75,0,0,1-2.91-.16l-2.91-.22-2.16-.22-.38,0,0-.24.37,0,2.14-.22,2.91-.22a15,15,0,0,1,2.91-.15A9.47,9.47,0,0,1,613.6,253.23Z" fill="#0071f2" data-primary="true"/>
<path d="M612.06,260.2l-.06.13a10.56,10.56,0,0,1-3.06-.65,18.49,18.49,0,0,1-2.72-1.42l-2.69-1.48-1.46-.86-.32-.18.13-.33.36.12,1.61.56,2.87,1.07a17.69,17.69,0,0,1,2.85,1.15A10.85,10.85,0,0,1,612.06,260.2Z" fill="#0071f2" data-primary="true"/>
<path d="M607.84,266.24l-.12.11a11.71,11.71,0,0,1-2.6-2,19.15,19.15,0,0,1-2-2.5l-1.92-2.56c-.25-.36-.5-.7-.76-1.06l-.22-.3q.16-.16.3-.33l.27.25,1,.95,2.26,2.26a18.46,18.46,0,0,1,2.21,2.3A11.62,11.62,0,0,1,607.84,266.24Z" fill="#0071f2" data-primary="true"/>
<path d="M602,270l-.14.06a10.62,10.62,0,0,1-1.65-2.54,17.27,17.27,0,0,1-.87-2.84l-.8-2.85-.51-1.94.33-.14c.3.6.58,1.21.89,1.82l1.22,2.7a16.83,16.83,0,0,1,1.16,2.73A9.84,9.84,0,0,1,602,270Z" fill="#0071f2" data-primary="true"/>
<path d="M595.93,268.49a10,10,0,0,1-.84,2.89h-.15a9.71,9.71,0,0,1-.52-3,16.8,16.8,0,0,1,.3-2.91l.39-2.92c.1-.69.2-1.38.31-2.07l.06-.39a1,1,0,0,0,.25,0,2.42,2.42,0,0,1,0,.38c0,.71.07,1.43.1,2.15l.08,2.93A16.86,16.86,0,0,1,595.93,268.49Z" fill="#0071f2" data-primary="true"/>
<path d="M588.16,250.13c0,.1-.07.19-.1.3l-.36-.12-1.74-.63-2.82-1.1a16,16,0,0,1-2.8-1.16,10.43,10.43,0,0,1-2.44-1.91l.06-.13a10.72,10.72,0,0,1,3,.69,17.5,17.5,0,0,1,2.66,1.43l2.63,1.5,1.56.93Z" fill="#0071f2" data-primary="true"/>
<path d="M587.67,253.2a2.2,2.2,0,0,1-.37.05l-1,.12-3.28.33a21.44,21.44,0,0,1-3.29.25,12.85,12.85,0,0,1-3.31-.57v-.15a12.16,12.16,0,0,1,3.28-.79,21.26,21.26,0,0,1,3.29.05l3.3.13,1,.06.38,0v.5Z" fill="#0071f2" data-primary="true"/>
<path d="M588.25,255.65l-.33.2-1.57,1-2.57,1.57a17.71,17.71,0,0,1-2.6,1.5,10.43,10.43,0,0,1-3,.76l-.07-.14a10.39,10.39,0,0,1,2.37-2,16.9,16.9,0,0,1,2.74-1.24l2.78-1.16c.59-.24,1.17-.48,1.77-.7a1.83,1.83,0,0,1,.35-.14A1.88,1.88,0,0,0,588.25,255.65Z" fill="#0071f2" data-primary="true"/>
<path d="M590.27,258.4l-.23.28c-.47.6-1,1.19-1.44,1.79l-1.87,2.19a15.61,15.61,0,0,1-1.92,2.14,10,10,0,0,1-2.5,1.55l-.11-.11a9.37,9.37,0,0,1,1.55-2.51,15.59,15.59,0,0,1,2.13-1.92l2.19-1.88c.58-.47,1.16-1,1.76-1.43l.29-.24Z" fill="#0071f2" data-primary="true"/>
<path d="M592.93,259.84c0,.12-.09.24-.13.35-.23.63-.47,1.25-.69,1.88L591,264.85a17.5,17.5,0,0,1-1.17,2.74,10,10,0,0,1-1.92,2.38l-.13-.06a10.3,10.3,0,0,1,.69-3,17.22,17.22,0,0,1,1.45-2.62l1.51-2.57,1-1.66a1.85,1.85,0,0,1,.21-.33Z" fill="#0071f2" data-primary="true"/>
<circle cx="595.38" cy="253.08" r="4.09" opacity="0.2"/>
<rect x="223.05" y="217.95" width="13.36" height="13.36" fill="#0071f2" data-primary="true"/>
<rect x="223.05" y="217.95" width="13.36" height="13.36" fill="#fff" opacity="0.5"/>
<ellipse cx="227.94" cy="252.79" rx="24.41" ry="24.78" fill="#0071f2" data-primary="true"/>
<ellipse cx="227.94" cy="252.79" rx="24.41" ry="24.78" fill="#fff" opacity="0.5"/>
<circle cx="227.94" cy="252.79" r="18.59" fill="#2f2e41" data-secondary="true"/>
<path d="M227.94,272.13a19.35,19.35,0,1,1,19.34-19.34A19.37,19.37,0,0,1,227.94,272.13Zm0-37.18a17.84,17.84,0,1,0,17.83,17.84A17.86,17.86,0,0,0,227.94,235Z" fill="#0071f2" data-primary="true"/>
<path d="M222.67,247.68l-.21.21-.29-.23-1.49-1.23-2.27-2a16.86,16.86,0,0,1-2.22-2,10.23,10.23,0,0,1-1.63-2.6l.11-.1a10.28,10.28,0,0,1,2.58,1.63,16.32,16.32,0,0,1,2,2.22l2,2.27c.41.5.82,1,1.21,1.48A2.48,2.48,0,0,1,222.67,247.68Z" fill="#0071f2" data-primary="true"/>
<path d="M225.28,245.94a1.79,1.79,0,0,0-.32.13,3.45,3.45,0,0,1-.2-.32c-.3-.48-.59-1-.9-1.46l-1.53-2.66a18.25,18.25,0,0,1-1.47-2.67,10.8,10.8,0,0,1-.72-3.05l.14-.06a10.41,10.41,0,0,1,1.94,2.45,17.42,17.42,0,0,1,1.19,2.81l1.13,2.84c.21.55.41,1.09.61,1.63C225.2,245.7,225.24,245.82,225.28,245.94Z" fill="#0071f2" data-primary="true"/>
<path d="M228.54,240.21l-.23,3c-.06.61-.11,1.22-.18,1.84,0,.13,0,.25,0,.38h-.31c0-.12,0-.25,0-.38-.06-.61-.11-1.23-.18-1.84l-.23-3a19,19,0,0,1-.15-3,10.49,10.49,0,0,1,.68-3H228a10.49,10.49,0,0,1,.68,3A16.87,16.87,0,0,1,228.54,240.21Z" fill="#0071f2" data-primary="true"/>
<path d="M234.94,235.9a9.74,9.74,0,0,1-.37,3,16.79,16.79,0,0,1-1.16,2.69l-1.22,2.67c-.28.54-.53,1.08-.8,1.63l-.17.34a1.92,1.92,0,0,0-.29-.14c0-.12.07-.24.1-.36.15-.58.3-1.15.45-1.74l.8-2.81a16.65,16.65,0,0,1,.87-2.81,10.66,10.66,0,0,1,1.65-2.51Z" fill="#0071f2" data-primary="true"/>
<path d="M241.32,239.88a10,10,0,0,1-1.58,2.59,15.92,15.92,0,0,1-2.18,2l-2.23,2-1.56,1.3-.3.24a1.07,1.07,0,0,0-.18-.19,2.42,2.42,0,0,1,.25-.31l1.25-1.57,1.91-2.27a16.56,16.56,0,0,1,2-2.22,10,10,0,0,1,2.56-1.63Z" fill="#0071f2" data-primary="true"/>
<path d="M245.35,246.29a9.53,9.53,0,0,1-2.42,1.73,16.27,16.27,0,0,1-2.75,1l-2.77.9-2.1.62-.36.1c0-.07,0-.14-.07-.22l.34-.18,1.9-1,2.6-1.31a17.06,17.06,0,0,1,2.63-1.25,9.85,9.85,0,0,1,3-.47Z" fill="#0071f2" data-primary="true"/>
<path d="M246.52,253.23v.15a10.09,10.09,0,0,1-2.91.68,17.75,17.75,0,0,1-2.91-.16l-2.91-.22-2.16-.22-.38,0,0-.24.37,0,2.14-.22,2.91-.22a15,15,0,0,1,2.91-.15A9.47,9.47,0,0,1,246.52,253.23Z" fill="#0071f2" data-primary="true"/>
<path d="M245,260.2l-.06.13a10.56,10.56,0,0,1-3.06-.65,18.49,18.49,0,0,1-2.72-1.42l-2.69-1.48-1.46-.86-.32-.18.13-.33.36.12,1.61.56,2.87,1.07a17.69,17.69,0,0,1,2.85,1.15A10.85,10.85,0,0,1,245,260.2Z" fill="#0071f2" data-primary="true"/>
<path d="M240.76,266.24l-.12.11a11.71,11.71,0,0,1-2.6-2,19.15,19.15,0,0,1-2-2.5l-1.92-2.56c-.25-.36-.5-.7-.76-1.06l-.22-.3q.16-.16.3-.33l.27.25,1,.95,2.26,2.26a18.46,18.46,0,0,1,2.21,2.3A11.62,11.62,0,0,1,240.76,266.24Z" fill="#0071f2" data-primary="true"/>
<path d="M234.94,270l-.14.06a10.62,10.62,0,0,1-1.65-2.54,17.27,17.27,0,0,1-.87-2.84l-.8-2.85-.51-1.94.33-.14c.3.6.58,1.21.89,1.82l1.22,2.7a16.83,16.83,0,0,1,1.16,2.73A9.84,9.84,0,0,1,234.94,270Z" fill="#0071f2" data-primary="true"/>
<path d="M228.85,268.49a10,10,0,0,1-.84,2.89h-.15a9.71,9.71,0,0,1-.52-3,16.8,16.8,0,0,1,.3-2.91l.39-2.92c.1-.69.2-1.38.31-2.07l.06-.39a1.06,1.06,0,0,0,.25,0,2.42,2.42,0,0,1,0,.38c0,.71.07,1.43.1,2.15l.08,2.93A16.86,16.86,0,0,1,228.85,268.49Z" fill="#0071f2" data-primary="true"/>
<path d="M221.08,250.13c0,.1-.07.19-.1.3l-.36-.12c-.58-.21-1.16-.43-1.74-.63l-2.82-1.1a16,16,0,0,1-2.8-1.16,10.43,10.43,0,0,1-2.44-1.91l.06-.13a10.72,10.72,0,0,1,3,.69,17.5,17.5,0,0,1,2.66,1.43l2.63,1.5,1.56.93Z" fill="#0071f2" data-primary="true"/>
<path d="M220.59,253.2a2.2,2.2,0,0,1-.37.05l-1,.12-3.28.33a21.44,21.44,0,0,1-3.29.25,12.85,12.85,0,0,1-3.31-.57v-.15a12.16,12.16,0,0,1,3.28-.79,21.26,21.26,0,0,1,3.29.05l3.3.13,1,.06.38,0v.5Z" fill="#0071f2" data-primary="true"/>
<path d="M221.17,255.65l-.33.2-1.57,1-2.57,1.57a17.71,17.71,0,0,1-2.6,1.5,10.43,10.43,0,0,1-3,.76l-.07-.14a10.39,10.39,0,0,1,2.37-2,16.9,16.9,0,0,1,2.74-1.24l2.78-1.16c.59-.24,1.17-.48,1.77-.7a1.83,1.83,0,0,1,.35-.14A1.88,1.88,0,0,0,221.17,255.65Z" fill="#0071f2" data-primary="true"/>
<path d="M223.19,258.4l-.23.28c-.47.6-1,1.19-1.44,1.79l-1.87,2.19a15.61,15.61,0,0,1-1.92,2.14,10,10,0,0,1-2.5,1.55l-.11-.11a9.37,9.37,0,0,1,1.55-2.51,15.59,15.59,0,0,1,2.13-1.92l2.19-1.88c.58-.47,1.16-1,1.76-1.43l.29-.24Z" fill="#0071f2" data-primary="true"/>
<path d="M225.85,259.84c0,.12-.09.24-.13.35-.23.63-.47,1.25-.69,1.88l-1.11,2.78a17.5,17.5,0,0,1-1.17,2.74,10,10,0,0,1-1.92,2.38l-.13-.06a10.3,10.3,0,0,1,.69-3,17.22,17.22,0,0,1,1.45-2.62l1.51-2.57,1-1.66a1.85,1.85,0,0,1,.21-.33Z" fill="#0071f2" data-primary="true"/>
<circle cx="228.3" cy="253.08" r="4.09" opacity="0.2"/>
<polygon points="396.49 263.85 404.45 277.35 412.94 263.85 396.49 263.85" fill="#2f2e41" data-secondary="true"/>
<rect x="392.28" y="292.76" width="9.05" height="16.58" rx="4.18" fill="#2f2e41" data-secondary="true"/>
<rect x="408.11" y="292.76" width="9.05" height="16.58" rx="4.18" fill="#2f2e41" data-secondary="true"/>
<path d="M496.09,209.19a50.4,50.4,0,0,1-10.22,24.24,70.09,70.09,0,0,1-13.29,13.17,57.12,57.12,0,0,1-7,4.65c-54.59,30.37-106,7.76-106,7.76a104,104,0,0,1-18.44-9h0c-1.79-1.12-3.46-2.27-5.05-3.44A59.32,59.32,0,0,1,323,233.43q-.68-1-1.29-1.92a48.47,48.47,0,0,1-7.58-23.18c-1.35-19.61,8.3-36.13,8.3-36.13C358.68,109.12,405,112.85,405,112.85c51.26-1.8,81.62,58.29,81.62,58.29C495.27,185.77,497.45,198.47,496.09,209.19Z" fill="#0071f2" data-primary="true"/>
<path d="M496.09,209.19a50.4,50.4,0,0,1-10.22,24.24,70.09,70.09,0,0,1-13.29,13.17,57.12,57.12,0,0,1-7,4.65c-54.59,30.37-106,7.76-106,7.76a104,104,0,0,1-18.44-9h0c-1.79-1.12-3.46-2.27-5.05-3.44A59.32,59.32,0,0,1,323,233.43q-.68-1-1.29-1.92a48.47,48.47,0,0,1-7.58-23.18c-1.35-19.61,8.3-36.13,8.3-36.13C358.68,109.12,405,112.85,405,112.85c51.26-1.8,81.62,58.29,81.62,58.29C495.27,185.77,497.45,198.47,496.09,209.19Z" fill="#fff" opacity="0.5"/>
<path d="M485.87,233.43a70.09,70.09,0,0,1-13.29,13.17,57.12,57.12,0,0,1-7,4.65c-54.59,30.37-106,7.76-106,7.76a96.12,96.12,0,0,1-23.5-12.4A59.32,59.32,0,0,1,323,233.43S396.94,204,485.87,233.43Z" fill="#0071f2" data-primary="true"/>
<path d="M472.58,246.6a57.12,57.12,0,0,1-7,4.65c-54.59,30.37-106,7.76-106,7.76a96.12,96.12,0,0,1-23.5-12.4h0S408.55,225.53,472.58,246.6Z" opacity="0.2"/>
<path d="M669.26,177.56a3.11,3.11,0,0,1-.08.74l-6.61,28.2-.11.49A4.53,4.53,0,0,1,659,210.4L465.6,251.25a57.12,57.12,0,0,0,7-4.65,70.09,70.09,0,0,0,13.29-13.17c.28-.38.57-.77.85-1.17a49.79,49.79,0,0,0,9.37-23.07l157-10.44a3.12,3.12,0,0,0,2.72-2.05L663,176.48a3.25,3.25,0,0,1,6.31,1.08Z" fill="#0071f2" data-primary="true"/>
<path d="M662.57,206.5l-.11.49A4.53,4.53,0,0,1,659,210.4L465.6,251.25a57.12,57.12,0,0,0,7-4.65,70.09,70.09,0,0,0,13.29-13.17c.28-.38.57-.77.85-1.17Z" fill="#fff" opacity="0.5"/>
<path d="M341.2,250.05,151,209.86a4.54,4.54,0,0,1-3.49-3.41l-.11-.49-6.61-28.2a3.19,3.19,0,0,1-.08-.75,3.25,3.25,0,0,1,6.31-1.07l7.17,20.21a3.11,3.11,0,0,0,2.72,2.06l157.3,10.12a48.48,48.48,0,0,0,8.87,25.1,59.32,59.32,0,0,0,13.11,13.18C337.74,247.78,339.41,248.93,341.2,250.05Z" fill="#0071f2" data-primary="true"/>
<path d="M341.2,250.05,151,209.86a4.54,4.54,0,0,1-3.49-3.41l-.11-.49,174.39,25.55q.62,1,1.29,1.92a59.32,59.32,0,0,0,13.11,13.18C337.74,247.78,339.41,248.93,341.2,250.05Z" fill="#fff" opacity="0.5"/>
<path d="M373.43,145l-2.89,33.45H350.7a2.13,2.13,0,0,1-2-2.77L357.72,147a2.77,2.77,0,0,1,2.65-1.94Z" fill="#fff" opacity="0.5"/>
<polygon points="376.33 145.03 404.02 145.03 404.02 178.47 373.43 178.47 376.33 145.03" fill="#fff" opacity="0.5"/>
<polygon points="406.28 145.03 406.28 178.47 436.49 178.47 433.34 145.03 406.28 145.03" fill="#fff" opacity="0.5"/>
<path d="M436.49,145,439,178.48h18a3.41,3.41,0,0,0,3.22-4.52l-9.36-27A2.81,2.81,0,0,0,448.2,145Z" fill="#fff" opacity="0.5"/>
<path d="M123.13,125.85h169s-10-35-48-24c0,0-30-33-71,1C173.13,102.85,140.13,87.85,123.13,125.85Z" fill="#e6e7e8"/>
<path d="M231.63,135.85h96S322,116.24,300.37,122.4c0,0-17.05-18.49-40.34.56C260,123,241.29,114.56,231.63,135.85Z" fill="#fff"/>
<path d="M570.13,134.7h109.5s-6.48-23.68-31.1-16.24c0,0-19.44-22.32-46,.68C602.53,119.14,581.15,109,570.13,134.7Z" fill="#e6e7e8"/>
<path d="M643.63,137.74h55s-3.25-10.69-15.62-7.33c0,0-9.76-10.08-23.11.3C659.9,130.71,649.16,126.13,643.63,137.74Z" fill="#fff"/>
<path d="M527.41,348H771s-14.41-50.45-69.19-34.6c0,0-43.25-47.57-102.35,1.45C599.49,314.88,551.92,293.25,527.41,348Z" fill="#e6e7e8"/>
<path d="M547.76,358.76h118.5s-7-24.31-33.66-16.67c0,0-21-22.92-49.78.69C582.82,342.78,559.68,332.37,547.76,358.76Z" fill="#fff" opacity="0.7" style="isolation:isolate"/>
<path d="M537.13,81.24s16,2,19,13c0,0,15-3,21,7,0,0,0-16-20-10C557.13,91.24,556.13,75.24,537.13,81.24Z" fill="#2f2e41" data-secondary="true"/>
<path d="M502.07,110.93s15.49-4.5,22.6,4.41c0,0,12.58-8.7,22.05-1.9,0,0-6.34-14.69-22.32-1.25C524.4,112.19,517.14,97.89,502.07,110.93Z" fill="#2f2e41" data-secondary="true"/>
<path d="M544.41,260.74a8.68,8.68,0,0,0-7.78,7.78,8.68,8.68,0,0,0-7.78-7.78,12.47,12.47,0,0,0,7.78-7.78,8.68,8.68,0,0,0,7.78,7.78Z" fill="#fff" opacity="0.7" style="isolation:isolate"/>
<path d="M672.63,158.74a5.62,5.62,0,0,0-3.39,1.61,5.68,5.68,0,0,0-1.61,3.39,5.59,5.59,0,0,0-5-5,8,8,0,0,0,5-5,5.68,5.68,0,0,0,1.61,3.39A5.62,5.62,0,0,0,672.63,158.74Z" fill="#fff" opacity="0.7" style="isolation:isolate"/>
<path d="M171.63,161.74a5.62,5.62,0,0,0-3.39,1.61,5.68,5.68,0,0,0-1.61,3.39,5.59,5.59,0,0,0-5-5,8,8,0,0,0,5-5,5.68,5.68,0,0,0,1.61,3.39A5.62,5.62,0,0,0,171.63,161.74Z" fill="#fff" opacity="0.7" style="isolation:isolate"/>
<path d="M219.63,309.74a5.62,5.62,0,0,0-3.39,1.61,5.68,5.68,0,0,0-1.61,3.39,5.59,5.59,0,0,0-5-5,8,8,0,0,0,5-5,5.68,5.68,0,0,0,1.61,3.39A5.62,5.62,0,0,0,219.63,309.74Z" fill="#fff" opacity="0.7" style="isolation:isolate"/>
</svg>